<?xml version="1.0" encoding="UTF-8"?>
<svg id="Layer_1" xmlns="http://www.w3.org/2000/svg" xmlns:xlink="http://www.w3.org/1999/xlink" version="1.1" viewBox="0 0 512 512">
  <!-- Generator: Adobe Illustrator 30.6.0, SVG Export Plug-In . SVG Version: 2.1.4 Build 109)  -->
  <defs>
    <style>
      .st0 {
        fill: url(#linear-gradient);
      }

      .st1, .st2 {
        fill: #fff;
      }

      .st3 {
        fill: none;
        stroke: #fff;
        stroke-linecap: round;
        stroke-width: 26px;
      }

      .st2 {
        isolation: isolate;
        opacity: .85;
      }
    </style>
    <linearGradient id="linear-gradient" x1="-222.56" y1="536.96" x2="-221.56" y2="535.96" gradientTransform="translate(113953 274921) scale(512 -512)" gradientUnits="userSpaceOnUse">
      <stop offset="0" stop-color="#6344f1"/>
      <stop offset="1" stop-color="#8b5cf6"/>
    </linearGradient>
  </defs>
  <rect class="st0" width="512" height="512" rx="112" ry="112"/>
  <g>
    <path class="st3" d="M66.75,149.03v-82.28h82.28"/>
    <path class="st3" d="M362.97,66.75h82.28v82.28"/>
    <path class="st3" d="M66.75,362.97v82.28h82.28"/>
    <path class="st3" d="M362.97,445.25h82.28v-82.28"/>
  </g>
  <g>
    <path class="st1" d="M222.24,165c13.21,67.52,35.23,89.53,102.74,102.74-67.52,13.21-89.53,35.23-102.74,102.74-13.21-67.52-35.23-89.53-102.74-102.74,67.52-13.21,89.53-35.23,102.74-102.74Z"/>
    <path class="st2" d="M357.27,141.52c4.4,22.02,13.21,30.82,35.23,35.23-22.02,4.4-30.82,13.21-35.23,35.23-4.4-22.02-13.21-30.82-35.23-35.23,22.02-4.4,30.82-13.21,35.23-35.23Z"/>
    <path class="st2" d="M357.27,327.74c4.4,22.02,13.21,30.82,35.23,35.23-22.02,4.4-30.82,13.21-35.23,35.23-4.4-22.02-13.21-30.82-35.23-35.23,22.02-4.4,30.82-13.21,35.23-35.23Z"/>
  </g>
</svg>